<svg xmlns="http://www.w3.org/2000/svg" version="1.1" xmlns:xlink="http://www.w3.org/1999/xlink" xmlns:svgjs="http://svgjs.dev/svgjs" width="1440" height="560" preserveAspectRatio="none" viewBox="0 0 1440 560"><g mask="url(&quot;#SvgjsMask1010&quot;)" fill="none"><rect width="1440" height="560" x="0" y="0" fill="rgba(73, 191, 224, 1)"></rect><path d="M896.15 566.64C1001.19 509.66 953.44 158.3 1143.02 157.34 1332.6 156.38 1498.98 397.02 1636.77 403.74" stroke="rgba(50, 50, 50, 0.61)" stroke-width="2"></path><path d="M367.14 570.48C497.01 548.11 555.97 231.14 767.38 227.42 978.79 223.7 967.49 297.42 1167.61 297.42 1367.73 297.42 1466.27 227.68 1567.85 227.42" stroke="rgba(50, 50, 50, 0.61)" stroke-width="2"></path><path d="M471.16 577.86C586.28 558.26 535.93 284.84 826.67 274.85 1117.41 264.86 1355.36 113.48 1537.69 112.45" stroke="rgba(50, 50, 50, 0.61)" stroke-width="2"></path><path d="M596.71 660.66C734.66 602.82 676.31 175.84 944.9 174.08 1213.49 172.32 1457.54 406.13 1641.27 409.28" stroke="rgba(50, 50, 50, 0.61)" stroke-width="2"></path><path d="M366.21 573.62C518.74 564.64 633.32 284.46 904.5 284.21 1175.69 283.96 1302.64 439.42 1442.8 441.01" stroke="rgba(50, 50, 50, 0.61)" stroke-width="2"></path></g><defs><mask id="SvgjsMask1010"><rect width="1440" height="560" fill="#ffffff"></rect></mask></defs></svg>