<svg xmlns="http://www.w3.org/2000/svg" version="1.1" xmlns:xlink="http://www.w3.org/1999/xlink" xmlns:svgjs="http://svgjs.dev/svgjs" width="1440" height="560" preserveAspectRatio="none" viewBox="0 0 1440 560"><g mask="url(&quot;#SvgjsMask1478&quot;)" fill="none"><rect width="1440" height="560" x="0" y="0" fill="rgba(73, 191, 224, 1)"></rect><use xlink:href="#SvgjsG1480" transform="translate(0, 0)" fill="#0f457b"></use><use xlink:href="#SvgjsG1480" transform="translate(600, 0)" fill="#0f457b"></use><use xlink:href="#SvgjsG1480" transform="translate(1200, 0)" fill="#0f457b"></use></g><defs><mask id="SvgjsMask1478"><rect width="1440" height="560" fill="#ffffff"></rect></mask><g id="SvgjsG1479"><path d="M8.028 8.66c1.197 0 1.752 0.909 1.869 2.199 0.028 0.309-0.001 0.759-0.041 1.281-0.134 1.732-0.289 3.86 0.864 3.86 0.975 0 1.476-1.871 1.766-4.004 0.279-2.112-0.016-3.162 0.129-4.1 0.277-1.777 1.828-3.37 1.349-5.634-0.265-1.256-0.957-1.848-1.643-2.096-1.579-0.575-2.598 0.533-4.293 0.533s-2.715-1.108-4.295-0.533C3.049 0.414 2.357 1.005 2.091 2.262c-0.478 2.265 1.072 3.858 1.35 5.634 0.145 0.938-0.15 1.988 0.129 4.1C3.859 14.128 4.36 16 5.335 16c1.153 0 0.999-2.128 0.864-3.86-0.04-0.521-0.068-0.971-0.041-1.28 0.116-1.291 0.679-2.2 1.87-2.2z"></path></g><g id="SvgjsG1480"><use xlink:href="#SvgjsG1479" transform="translate(0, 0) scale(2)" fill="#0f457b"></use><use xlink:href="#SvgjsG1479" transform="translate(0, 60) scale(2)" fill="#0f457b"></use><use xlink:href="#SvgjsG1479" transform="translate(0, 120) scale(2)" fill="#0f457b"></use><use xlink:href="#SvgjsG1479" transform="translate(0, 180) scale(2)" fill="#0f457b"></use><use xlink:href="#SvgjsG1479" transform="translate(0, 240) scale(2)" fill="#0f457b"></use><use xlink:href="#SvgjsG1479" transform="translate(0, 300) scale(2)" fill="#0f457b"></use><use xlink:href="#SvgjsG1479" transform="translate(0, 360) scale(2)" fill="#0f457b"></use><use xlink:href="#SvgjsG1479" transform="translate(0, 420) scale(2)" fill="#0f457b"></use><use xlink:href="#SvgjsG1479" transform="translate(0, 480) scale(2)" fill="#0f457b"></use><use xlink:href="#SvgjsG1479" transform="translate(0, 540) scale(2)" fill="#0f457b"></use><use xlink:href="#SvgjsG1479" transform="translate(60, 0) scale(2)" fill="#0f457b"></use><use xlink:href="#SvgjsG1479" transform="translate(60, 60) scale(2)" fill="#0f457b"></use><use xlink:href="#SvgjsG1479" transform="translate(60, 120) scale(2)" fill="#0f457b"></use><use xlink:href="#SvgjsG1479" transform="translate(60, 180) scale(2)" fill="#0f457b"></use><use xlink:href="#SvgjsG1479" transform="translate(60, 240) scale(2)" fill="#0f457b"></use><use xlink:href="#SvgjsG1479" transform="translate(60, 300) scale(2)" fill="#0f457b"></use><use xlink:href="#SvgjsG1479" transform="translate(60, 360) scale(2)" fill="#0f457b"></use><use xlink:href="#SvgjsG1479" transform="translate(60, 420) scale(2)" fill="#0f457b"></use><use xlink:href="#SvgjsG1479" transform="translate(60, 480) scale(2)" fill="#0f457b"></use><use xlink:href="#SvgjsG1479" transform="translate(60, 540) scale(2)" fill="#0f457b"></use><use xlink:href="#SvgjsG1479" transform="translate(120, 0) scale(2)" fill="#0f457b"></use><use xlink:href="#SvgjsG1479" transform="translate(120, 60) scale(2)" fill="#0f457b"></use><use xlink:href="#SvgjsG1479" transform="translate(120, 120) scale(2)" fill="#0f457b"></use><use xlink:href="#SvgjsG1479" transform="translate(120, 180) scale(2)" fill="#0f457b"></use><use xlink:href="#SvgjsG1479" transform="translate(120, 240) scale(2)" fill="#0f457b"></use><use xlink:href="#SvgjsG1479" transform="translate(120, 300) scale(2)" fill="#0f457b"></use><use xlink:href="#SvgjsG1479" transform="translate(120, 360) scale(2)" fill="#0f457b"></use><use xlink:href="#SvgjsG1479" transform="translate(120, 420) scale(2)" fill="#0f457b"></use><use xlink:href="#SvgjsG1479" transform="translate(120, 480) scale(2)" fill="#0f457b"></use><use xlink:href="#SvgjsG1479" transform="translate(120, 540) scale(2)" fill="#0f457b"></use><use xlink:href="#SvgjsG1479" transform="translate(180, 0) scale(2)" fill="#0f457b"></use><use xlink:href="#SvgjsG1479" transform="translate(180, 60) scale(2)" fill="#0f457b"></use><use xlink:href="#SvgjsG1479" transform="translate(180, 120) scale(2)" fill="#0f457b"></use><use xlink:href="#SvgjsG1479" transform="translate(180, 180) scale(2)" fill="#0f457b"></use><use xlink:href="#SvgjsG1479" transform="translate(180, 240) scale(2)" fill="#0f457b"></use><use xlink:href="#SvgjsG1479" transform="translate(180, 300) scale(2)" fill="#0f457b"></use><use xlink:href="#SvgjsG1479" transform="translate(180, 360) scale(2)" fill="#0f457b"></use><use xlink:href="#SvgjsG1479" transform="translate(180, 420) scale(2)" fill="#0f457b"></use><use xlink:href="#SvgjsG1479" transform="translate(180, 480) scale(2)" fill="#0f457b"></use><use xlink:href="#SvgjsG1479" transform="translate(180, 540) scale(2)" fill="#0f457b"></use><use xlink:href="#SvgjsG1479" transform="translate(240, 0) scale(2)" fill="#0f457b"></use><use xlink:href="#SvgjsG1479" transform="translate(240, 60) scale(2)" fill="#0f457b"></use><use xlink:href="#SvgjsG1479" transform="translate(240, 120) scale(2)" fill="#0f457b"></use><use xlink:href="#SvgjsG1479" transform="translate(240, 180) scale(2)" fill="#0f457b"></use><use xlink:href="#SvgjsG1479" transform="translate(240, 240) scale(2)" fill="#0f457b"></use><use xlink:href="#SvgjsG1479" transform="translate(240, 300) scale(2)" fill="#0f457b"></use><use xlink:href="#SvgjsG1479" transform="translate(240, 360) scale(2)" fill="#0f457b"></use><use xlink:href="#SvgjsG1479" transform="translate(240, 420) scale(2)" fill="#0f457b"></use><use xlink:href="#SvgjsG1479" transform="translate(240, 480) scale(2)" fill="#0f457b"></use><use xlink:href="#SvgjsG1479" transform="translate(240, 540) scale(2)" fill="#0f457b"></use><use xlink:href="#SvgjsG1479" transform="translate(300, 0) scale(2)" fill="#0f457b"></use><use xlink:href="#SvgjsG1479" transform="translate(300, 60) scale(2)" fill="#0f457b"></use><use xlink:href="#SvgjsG1479" transform="translate(300, 120) scale(2)" fill="#0f457b"></use><use xlink:href="#SvgjsG1479" transform="translate(300, 180) scale(2)" fill="#0f457b"></use><use xlink:href="#SvgjsG1479" transform="translate(300, 240) scale(2)" fill="#0f457b"></use><use xlink:href="#SvgjsG1479" transform="translate(300, 300) scale(2)" fill="#0f457b"></use><use xlink:href="#SvgjsG1479" transform="translate(300, 360) scale(2)" fill="#0f457b"></use><use xlink:href="#SvgjsG1479" transform="translate(300, 420) scale(2)" fill="#0f457b"></use><use xlink:href="#SvgjsG1479" transform="translate(300, 480) scale(2)" fill="#0f457b"></use><use xlink:href="#SvgjsG1479" transform="translate(300, 540) scale(2)" fill="#0f457b"></use><use xlink:href="#SvgjsG1479" transform="translate(360, 0) scale(2)" fill="#0f457b"></use><use xlink:href="#SvgjsG1479" transform="translate(360, 60) scale(2)" fill="#0f457b"></use><use xlink:href="#SvgjsG1479" transform="translate(360, 120) scale(2)" fill="#0f457b"></use><use xlink:href="#SvgjsG1479" transform="translate(360, 180) scale(2)" fill="#0f457b"></use><use xlink:href="#SvgjsG1479" transform="translate(360, 240) scale(2)" fill="#0f457b"></use><use xlink:href="#SvgjsG1479" transform="translate(360, 300) scale(2)" fill="#0f457b"></use><use xlink:href="#SvgjsG1479" transform="translate(360, 360) scale(2)" fill="#0f457b"></use><use xlink:href="#SvgjsG1479" transform="translate(360, 420) scale(2)" fill="#0f457b"></use><use xlink:href="#SvgjsG1479" transform="translate(360, 480) scale(2)" fill="#0f457b"></use><use xlink:href="#SvgjsG1479" transform="translate(360, 540) scale(2)" fill="#0f457b"></use><use xlink:href="#SvgjsG1479" transform="translate(420, 0) scale(2)" fill="#0f457b"></use><use xlink:href="#SvgjsG1479" transform="translate(420, 60) scale(2)" fill="#0f457b"></use><use xlink:href="#SvgjsG1479" transform="translate(420, 120) scale(2)" fill="#0f457b"></use><use xlink:href="#SvgjsG1479" transform="translate(420, 180) scale(2)" fill="#0f457b"></use><use xlink:href="#SvgjsG1479" transform="translate(420, 240) scale(2)" fill="#0f457b"></use><use xlink:href="#SvgjsG1479" transform="translate(420, 300) scale(2)" fill="#0f457b"></use><use xlink:href="#SvgjsG1479" transform="translate(420, 360) scale(2)" fill="#0f457b"></use><use xlink:href="#SvgjsG1479" transform="translate(420, 420) scale(2)" fill="#0f457b"></use><use xlink:href="#SvgjsG1479" transform="translate(420, 480) scale(2)" fill="#0f457b"></use><use xlink:href="#SvgjsG1479" transform="translate(420, 540) scale(2)" fill="#0f457b"></use><use xlink:href="#SvgjsG1479" transform="translate(480, 0) scale(2)" fill="#0f457b"></use><use xlink:href="#SvgjsG1479" transform="translate(480, 60) scale(2)" fill="#0f457b"></use><use xlink:href="#SvgjsG1479" transform="translate(480, 120) scale(2)" fill="#0f457b"></use><use xlink:href="#SvgjsG1479" transform="translate(480, 180) scale(2)" fill="#0f457b"></use><use xlink:href="#SvgjsG1479" transform="translate(480, 240) scale(2)" fill="#0f457b"></use><use xlink:href="#SvgjsG1479" transform="translate(480, 300) scale(2)" fill="#0f457b"></use><use xlink:href="#SvgjsG1479" transform="translate(480, 360) scale(2)" fill="#0f457b"></use><use xlink:href="#SvgjsG1479" transform="translate(480, 420) scale(2)" fill="#0f457b"></use><use xlink:href="#SvgjsG1479" transform="translate(480, 480) scale(2)" fill="#0f457b"></use><use xlink:href="#SvgjsG1479" transform="translate(480, 540) scale(2)" fill="#0f457b"></use><use xlink:href="#SvgjsG1479" transform="translate(540, 0) scale(2)" fill="#0f457b"></use><use xlink:href="#SvgjsG1479" transform="translate(540, 60) scale(2)" fill="#0f457b"></use><use xlink:href="#SvgjsG1479" transform="translate(540, 120) scale(2)" fill="#0f457b"></use><use xlink:href="#SvgjsG1479" transform="translate(540, 180) scale(2)" fill="#0f457b"></use><use xlink:href="#SvgjsG1479" transform="translate(540, 240) scale(2)" fill="#0f457b"></use><use xlink:href="#SvgjsG1479" transform="translate(540, 300) scale(2)" fill="#0f457b"></use><use xlink:href="#SvgjsG1479" transform="translate(540, 360) scale(2)" fill="#0f457b"></use><use xlink:href="#SvgjsG1479" transform="translate(540, 420) scale(2)" fill="#0f457b"></use><use xlink:href="#SvgjsG1479" transform="translate(540, 480) scale(2)" fill="#0f457b"></use><use xlink:href="#SvgjsG1479" transform="translate(540, 540) scale(2)" fill="#0f457b"></use></g></defs></svg>